<svg class="w-full h-full absolute top-0 overflow-visible" viewBox="0 0 508 168">
    <path id="wormhole-path" d="M507.17 20.5339C508.493 15.9689 393.859 -0.340403 325.67 0.533854C257.481 1.40811 221.56 -1.45657 154.67 10.5339C87.781 22.5243 33.1704 43.0339 33.1704 43.0339L0.67041 86.5339L45.6704 128.034L154.67 156.534L282.67 166.534L397.67 150.034L455.67 122.534L462.67 97.5339C462.67 97.5339 475.769 81.789 451.67 72.0339C427.571 62.2787 413.444 59.8959 387.67 58.5339C358.38 56.0936 341.961 56.3113 312.67 58.5339C282.06 63.6897 269.23 66.662 250.17 72.0339C232.226 77.526 226.257 83.2144 222.17 97.5339L288.67 128.034L294.67 156.534" fill="none" stroke="none"></path>
    <foreignObject x="0" y="0" width="120%" class="overflow-visible" height="120%">
        <div style="position: absolute; width: 1.5rem; height: 1.5rem; border-radius: 50%; background: white; offset-path: path(&quot;M 507.17 20.5339 C 508.493 15.9689 393.859 -0.340403 325.67 0.533854 C 257.481 1.40811 221.56 -1.45657 154.67 10.5339 C 87.781 22.5243 33.1704 43.0339 33.1704 43.0339 L 0.67041 86.5339 L 45.6704 128.034 L 154.67 156.534 L 282.67 166.534 L 397.67 150.034 L 455.67 122.534 L 462.67 97.5339 C 462.67 97.5339 475.769 81.789 451.67 72.0339 C 427.571 62.2787 413.444 59.8959 387.67 58.5339 C 358.38 56.0936 341.961 56.3113 312.67 58.5339 C 282.06 63.6897 269.23 66.662 250.17 72.0339 C 232.226 77.526 226.257 83.2144 222.17 97.5339 L 288.67 128.034 L 294.67 156.534&quot;); offset-rotate: auto; filter: drop-shadow(rgba(255, 255, 255, 0.8) 0px 0px 8px); offset-distance: 44.6852%; opacity: 1;"></div>
    </foreignObject>
</svg>