<svg class="w-full h-auto" viewBox="0 0 1535 428" fill="none" xmlns="http://www.w3.org/2000/svg"><path d="M767.402 0.473633C979.284 0.47367 1171.09 24.3834 1309.91 63.0303C1379.32 82.3546 1435.46 105.357 1474.24 130.878C1513.03 156.412 1534.33 184.389 1534.33 213.641C1534.33 242.892 1513.03 270.87 1474.24 296.404C1435.46 321.926 1379.32 344.927 1309.91 364.251C1171.09 402.898 979.284 426.808 767.402 426.808C555.52 426.808 363.714 402.898 224.894 364.251C155.48 344.927 99.3409 321.926 60.5664 296.404C21.7727 270.87 0.473633 242.892 0.473633 213.641C0.473759 184.389 21.773 156.412 60.5664 130.878C99.341 105.357 155.48 82.3546 224.894 63.0303C363.714 24.3833 555.52 0.473633 767.402 0.473633Z" stroke="#1B1B1B" stroke-width="0.94741"></path><path d="M766.929 26.0557C950.948 26.0557 1117.53 46.9966 1238.09 80.8428C1298.37 97.7667 1347.12 117.91 1380.79 140.257C1414.48 162.616 1432.96 187.105 1432.96 212.695C1432.96 238.286 1414.48 262.774 1380.79 285.134C1347.12 307.481 1298.37 327.625 1238.09 344.549C1117.53 378.395 950.948 399.335 766.929 399.335C582.91 399.335 416.329 378.395 295.768 344.549C235.485 327.625 186.734 307.481 153.065 285.134C119.378 262.774 100.9 238.286 100.9 212.695C100.9 187.105 119.378 162.616 153.065 140.257C186.734 117.91 235.485 97.7668 295.768 80.8428C416.329 46.9966 582.91 26.0557 766.929 26.0557Z" stroke="#1B1B1B" stroke-width="0.94741"></path><path d="M765.981 56.3721C922.53 56.3721 1064.24 74.0781 1166.8 102.695C1218.08 117.005 1259.55 134.035 1288.19 152.926C1316.84 171.829 1332.53 192.517 1332.53 214.116C1332.53 235.716 1316.84 256.403 1288.19 275.306C1259.55 294.196 1218.08 311.227 1166.8 325.536C1064.24 354.153 922.53 371.859 765.981 371.859C609.432 371.859 467.721 354.153 365.162 325.536C313.879 311.227 272.412 294.196 243.777 275.306C215.123 256.403 199.43 235.716 199.43 214.116C199.43 192.517 215.123 171.829 243.777 152.926C272.412 134.035 313.879 117.005 365.162 102.695C467.721 74.0782 609.432 56.3721 765.981 56.3721Z" stroke="#1B1B1B" stroke-width="0.94741"></path><path d="M765.982 93.3193C894.8 93.3194 1011.41 107.738 1095.79 131.041C1137.99 142.693 1172.1 156.559 1195.65 171.937C1219.23 187.327 1232.11 204.151 1232.11 221.693C1232.11 239.235 1219.23 256.06 1195.65 271.45C1172.1 286.827 1137.99 300.694 1095.79 312.346C1011.41 335.648 894.8 350.067 765.982 350.067C637.165 350.067 520.559 335.648 436.173 312.346C393.976 300.693 359.863 286.827 336.31 271.45C312.736 256.06 299.856 239.235 299.856 221.693C299.856 204.151 312.736 187.327 336.31 171.937C359.863 156.559 393.976 142.693 436.173 131.041C520.559 107.738 637.165 93.3193 765.982 93.3193Z" stroke="#1B1B1B" stroke-width="0.94741"></path><path d="M766.455 126.479C854.59 126.48 934.363 136.604 992.088 152.962C1020.95 161.142 1044.28 170.874 1060.38 181.659C1076.49 192.456 1085.26 204.233 1085.26 216.483C1085.26 228.733 1076.49 240.51 1060.38 251.308C1044.28 262.093 1020.95 271.825 992.088 280.005C934.363 296.363 854.59 306.487 766.455 306.487C678.32 306.487 598.546 296.363 540.821 280.005C511.955 271.825 488.63 262.093 472.532 251.308C456.416 240.51 447.651 228.734 447.651 216.483C447.651 204.233 456.416 192.456 472.532 181.659C488.63 170.874 511.955 161.142 540.821 152.962C598.546 136.604 678.32 126.479 766.455 126.479Z" stroke="#1B1B1B" stroke-width="0.94741"></path><path d="M766.928 147.323C835.05 147.323 896.706 154.955 941.317 167.285C963.625 173.451 981.644 180.785 994.074 188.908C1006.53 197.044 1013.26 205.893 1013.26 215.063C1013.25 224.234 1006.52 233.083 994.074 241.219C981.644 249.342 963.625 256.675 941.317 262.841C896.706 275.171 835.05 282.803 766.928 282.803C698.806 282.803 637.151 275.171 592.54 262.841C570.232 256.675 552.213 249.342 539.782 241.219C527.332 233.083 520.602 224.234 520.602 215.063C520.602 205.893 527.332 197.044 539.782 188.908C552.213 180.785 570.232 173.451 592.54 167.285C637.151 154.955 698.806 147.323 766.928 147.323Z" stroke="#1B1B1B" stroke-width="0.94741"></path><path d="M767.876 172.903C815.329 172.903 858.271 178.468 889.335 187.453C904.87 191.947 917.407 197.289 926.05 203.199C934.708 209.12 939.357 215.539 939.357 222.169C939.357 228.799 934.708 235.218 926.05 241.139C917.407 247.049 904.87 252.391 889.335 256.885C858.271 265.87 815.329 271.434 767.876 271.434C720.424 271.434 677.481 265.87 646.417 256.885C630.882 252.391 618.344 247.049 609.701 241.139C601.043 235.218 596.395 228.799 596.395 222.169C596.395 215.539 601.043 209.12 609.701 203.199C618.344 197.289 630.882 191.947 646.417 187.453C677.481 178.468 720.424 172.903 767.876 172.903Z" stroke="#1B1B1B" stroke-width="0.94741"></path><path d="M765.981 189.956C803.232 189.956 836.938 194.142 861.318 200.899C873.511 204.279 883.344 208.295 890.118 212.734C896.911 217.186 900.513 221.985 900.513 226.905C900.513 231.825 896.911 236.623 890.118 241.075C883.344 245.514 873.511 249.53 861.318 252.91C836.938 259.668 803.232 263.854 765.981 263.854C728.73 263.854 695.024 259.668 670.644 252.91C658.451 249.53 648.618 245.514 641.844 241.075C635.051 236.623 631.449 231.825 631.449 226.905C631.449 221.985 635.051 217.186 641.844 212.734C648.618 208.295 658.451 204.279 670.644 200.899C695.023 194.142 728.73 189.956 765.981 189.956Z" stroke="#1B1B1B" stroke-width="0.94741"></path><path d="M688.768 257.471C675.703 252.822 667.925 246.982 667.925 240.641C667.925 225.467 712.463 213.166 767.403 213.166C822.344 213.166 866.881 225.467 866.881 240.641C866.881 246.589 860.436 251.5 848.805 255.998" stroke="#1B1B1B" stroke-width="0.94741"></path><path d="M827.5 1.00195L780.969 173.495C780.969 173.495 778.299 186.329 775.834 213.83C773.223 242.961 771.801 262.966 771.801 262.966" stroke="#1B1B1B" stroke-width="0.94741"></path><path d="M1467 126.5L922.775 200.849C922.775 200.849 886.688 209.079 866.878 221.218C847.567 233.052 825.338 260.03 825.338 260.03" stroke="#1B1B1B" stroke-width="0.94741"></path><path d="M1533.5 227.03L939.376 227.03C939.376 227.03 900.149 226.802 879.24 236.93C856.872 247.765 848.072 255.998 848.072 255.998" stroke="#1B1B1B" stroke-width="0.94741"></path><path d="M1203.5 38.498L866.039 181.927C866.039 181.927 848.664 187.875 833.404 205.395C813.604 228.129 801.136 262.597 801.136 262.597" stroke="#1B1B1B" stroke-width="0.94741"></path><path d="M1389 338.498L910.774 249.398C910.774 249.398 899.412 247.536 892.074 247.565C885.021 247.593 873.74 249.031 873.74 249.031" stroke="#1B1B1B" stroke-width="0.733364"></path><path d="M714.966 426.505L757.135 264.432" stroke="#1B1B1B" stroke-width="0.733364"></path><path d="M1093.38 407.071L844.405 265.899C844.405 265.899 838.709 263.32 834.871 262.232C831.224 261.197 825.338 260.398 825.338 260.398" stroke="#1B1B1B" stroke-width="0.733364"></path><path d="M120.5 98.998L622.929 195.862C622.929 195.862 659.336 204.606 679.032 220.429C696.688 234.615 716.433 261.131 716.433 261.131" stroke="#1B1B1B" stroke-width="0.94741"></path><path d="M1.00171 205.5L602.395 218.962C602.395 218.962 642.364 222.629 665.465 237.296C687.478 251.273 695.166 258.564 695.166 258.564" stroke="#1B1B1B" stroke-width="0.94741"></path><path d="M421.255 23.1543L692.966 178.994C692.966 178.994 709.288 191.315 721.2 211.262C736.968 237.663 743.935 264.064 743.935 264.064" stroke="#1B1B1B" stroke-width="0.94741"></path><path d="M90.0005 313.5L613.762 243.53C613.762 243.53 631.561 242.214 646.03 243.53C658.131 244.631 672.5 249 672.5 249" stroke="#1B1B1B" stroke-width="0.733364"></path><path d="M358.501 394L673.898 262.965C673.898 262.965 679.594 260.387 683.432 259.298C687.08 258.264 692.966 257.465 692.966 257.465" stroke="#1B1B1B" stroke-width="0.733364"></path></svg>
